HIERARCHY
ROOT Hips
{
	OFFSET 0.00000 0.00000 0.00000
	CHANNELS 6 Xposition Yposition Zposition Zrotation Yrotation Xrotation 
	JOINT LHipJoint
	{
		OFFSET 0 0 0
		CHANNELS 3 Zrotation Yrotation Xrotation
		JOINT LeftHip
		{
			OFFSET 1.62964 -1.40469 0.78906
			CHANNELS 3 Zrotation Yrotation Xrotation
			JOINT LeftKnee
			{
				OFFSET 2.29640 -6.30932 0.00000
				CHANNELS 3 Zrotation Yrotation Xrotation
				JOINT LeftAnkle
				{
					OFFSET 2.29451 -6.30412 0.00000
					CHANNELS 3 Zrotation Yrotation Xrotation
					JOINT LeftToe
					{
						OFFSET 0.03611 -0.09921 1.56387
						CHANNELS 3 Zrotation Yrotation Xrotation
						End Site
						{
							OFFSET 0.00000 -0.00000 0.80291
						}
					}
				}
			}
		}
	}
	JOINT RHipJoint
	{
		OFFSET 0 0 0
		CHANNELS 3 Zrotation Yrotation Xrotation
		JOINT RightHip
		{
			OFFSET -1.73712 -1.40469 0.78906
			CHANNELS 3 Zrotation Yrotation Xrotation
			JOINT RightKnee
			{
				OFFSET -2.28137 -6.26801 0.00000
				CHANNELS 3 Zrotation Yrotation Xrotation
				JOINT RightAnkle
				{
					OFFSET -2.28681 -6.28298 0.00000
					CHANNELS 3 Zrotation Yrotation Xrotation
					JOINT RightToe
					{
						OFFSET -0.15927 -0.43759 1.61103
						CHANNELS 3 Zrotation Yrotation Xrotation
						End Site
						{
							OFFSET -0.00000 -0.00000 0.84630
						}
					}
				}
			}
		}
	}
	JOINT lowerback
	{
		OFFSET 0 0 0
		CHANNELS 3 Zrotation Yrotation Xrotation
		JOINT Chest
		{
			OFFSET -0.04227 2.04338 -0.00225
			CHANNELS 3 Zrotation Yrotation Xrotation
			JOINT Chest2
			{
				OFFSET -0.02148 2.04482 -0.04273
				CHANNELS 3 Zrotation Yrotation Xrotation
				JOINT lowerneck
				{
					OFFSET 0 0 0
					CHANNELS 3 Zrotation Yrotation Xrotation
					JOINT Neck
					{
						OFFSET 0.09180 1.44629 0.19359
						CHANNELS 3 Zrotation Yrotation Xrotation
						JOINT Head
						{
							OFFSET 0.00887 1.40645 0.14750
							CHANNELS 3 Zrotation Yrotation Xrotation
							End Site
							{
								OFFSET -0.00669 1.50671 0.03707
							}
						}
					}
				}
				JOINT LeftCollar
				{
					OFFSET 0 0 0
					CHANNELS 3 Zrotation Yrotation Xrotation
					JOINT LeftShoulder
					{
						OFFSET 2.17674 1.86763 -0.06520
CHANNELS 3 Zrotation Xrotation Yrotation
						JOINT LeftElbow
						{
OFFSET 0 -4.657760 0.000000
CHANNELS 3 Zrotation Xrotation Yrotation
							JOINT LeftWrist
							{
OFFSET 0 -3.555390 0.000000
CHANNELS 3 Zrotation Xrotation Yrotation
								JOINT lhand
								{
									OFFSET 0 0 0
CHANNELS 3 Zrotation Xrotation Yrotation
									JOINT LFingers
									{
OFFSET 0 -0.707260 0.000000
CHANNELS 3 Zrotation Xrotation Yrotation
										End Site
										{
OFFSET 0 -0.570220 0.000000
										}
									}
								}
								JOINT LThumb
								{
OFFSET 0 0.000000 0.000000
CHANNELS 3 Zrotation Xrotation Yrotation
									End Site
									{
OFFSET 0 -0.578920 0.578920
									}
								}
							}
						}
					}
				}
				JOINT RightCollar
				{
					OFFSET 0 0 0
					CHANNELS 3 Zrotation Yrotation Xrotation
					JOINT RightShoulder
					{
						OFFSET -2.80694 1.55459 -0.32496
CHANNELS 3 Zrotation Xrotation Yrotation
						JOINT RightElbow
						{
OFFSET 0 -4.719250 -0.000000
CHANNELS 3 Zrotation Xrotation Yrotation
							JOINT RightWrist
							{
OFFSET 0 -3.569900 0.000000
CHANNELS 3 Zrotation Xrotation Yrotation
								JOINT rhand
								{
									OFFSET 0 0 0
CHANNELS 3 Zrotation Xrotation Yrotation
									JOINT RFingers
									{
OFFSET 0 -0.507760 0.000000
CHANNELS 3 Zrotation Xrotation Yrotation
										End Site
										{
OFFSET 0 -0.409370 0.000000
										}
									}
								}
								JOINT RThumb
								{
OFFSET 0 0.000000 0.000000
CHANNELS 3 Zrotation Xrotation Yrotation
									End Site
									{
OFFSET 0 -0.415620 0.415620
									}
								}
							}
						}
					}
				}
			}
		}
	}
}
MOTION
Frames: 10
Frame Time: 0.008333333333333333
16.540700 16.363300 21.139600 172.743000 -1.565000 -153.174000 0.000000 0.000000 0.000000 -26.374400 -17.781700 -19.719500 0.246100 3.192200 8.814400 0.189000 -1.086700 -7.899800 5.463200 -13.887200 -42.787400 0.000000 0.000000 0.000000 13.047500 11.672100 -20.124200 -0.124700 -2.276400 6.270200 -0.948300 6.741600 -17.378600 -0.359000 3.849400 -10.653300 -12.538000 -3.214600 -33.855700 -1.377600 -0.148400 -1.337200 4.968200 -1.321700 15.782700 -0.243600 -2.743100 -6.084400 3.111600 -3.990800 7.020600 0.865300 -1.895100 3.417900 -0.000000 0.000000 0.000000 3.927500 -1.624500 -18.041900 9.428600 -15.840900 1.314700 23.439200 3.719700 13.666700 0.000000 0.000000 0.000000 -7.125000 0.000000 0.000000 -2.707000 15.147500 -1.907700 -0.000000 0.000000 0.000000 1.820000 1.577800 4.314600 -14.137000 -22.930200 -2.881300 -12.695400 10.303700 56.734400 0.000000 0.000000 0.000000 7.125000 0.000000 -0.000000 81.888100 76.592200 -68.021700
16.541852 16.363300 21.140664 172.756297 -1.604891 -153.254669 0.000000 0.000000 0.000000 -26.342044 -17.834179 -19.609311 0.244593 3.182715 8.787806 0.188911 -0.980411 -7.921341 5.486603 -13.911667 -42.884647 0.000000 0.000000 0.000000 13.093597 11.676266 -20.033336 -0.124966 -2.278705 6.276671 -0.952644 6.643644 -17.415477 -0.380896 3.963135 -10.973052 -12.537468 -3.207065 -33.751982 -1.376270 -0.141751 -1.310162 4.976178 -1.314963 15.771796 -0.206988 -2.776432 -6.134309 3.079155 -4.038227 7.065722 0.845000 -1.917971 3.442278 0.000000 0.000000 0.000000 3.968633 -1.670242 -18.100053 9.409807 -15.811114 1.309558 23.493807 3.545684 13.823252 0.000000 0.000000 0.000000 -7.125000 0.000000 0.000000 -2.678810 14.972687 -1.897860 0.000000 0.000000 0.000000 1.830194 1.500056 4.134645 -14.071933 -22.837474 -2.855947 -12.576612 10.061869 56.535386 0.000000 0.000000 0.000000 7.125000 0.000000 0.000000 81.042844 76.543178 -67.132120
16.542541 16.363455 21.139641 172.814426 -1.653827 -153.336112 0.000000 0.000000 0.000000 -26.277841 -17.815856 -19.505924 0.243163 3.173307 8.761675 0.189441 -0.936809 -7.942110 5.508383 -13.934433 -42.975323 0.000000 0.000000 0.000000 13.202921 11.677418 -19.917892 -0.124614 -2.275908 6.268843 -0.958224 6.550249 -17.465109 -0.420338 4.159963 -11.527242 -12.505709 -3.206255 -33.688458 -1.338844 -0.154581 -1.284748 4.998920 -1.316187 15.780603 -0.179575 -2.803734 -6.152990 3.002651 -4.072513 7.117336 0.812950 -1.936359 3.461555 0.000000 0.000000 0.000000 3.940508 -1.672158 -18.055403 9.398666 -15.793541 1.306504 23.523989 3.533371 13.874141 0.000000 0.000000 0.000000 -7.125000 0.000000 0.000000 -2.661210 14.914435 -1.888716 0.000000 0.000000 0.000000 1.797335 1.453771 4.017763 -14.009184 -22.747841 -2.831676 -12.482249 9.812849 56.326787 0.000000 0.000000 0.000000 7.125000 0.000000 0.000000 80.163268 76.499180 -66.217728
16.541381 16.362841 21.139893 172.876501 -1.657072 -153.353703 0.000000 0.000000 0.000000 -26.216941 -17.774473 -19.500736 0.242800 3.171098 8.755396 0.189402 -1.005154 -7.926496 5.390388 -13.809830 -42.482030 0.000000 0.000000 0.000000 13.275438 11.704439 -19.878036 -0.123907 -2.269593 6.251331 -0.956864 6.544371 -17.452780 -0.417582 4.147623 -11.492436 -12.448459 -3.191529 -33.696450 -1.310161 -0.156490 -1.280410 5.000882 -1.313107 15.792107 -0.199014 -2.806873 -6.128113 2.997754 -4.074074 7.111676 0.814983 -1.938130 3.455156 0.000000 0.000000 0.000000 3.900960 -1.644029 -17.973695 9.400386 -15.796292 1.306987 23.490641 3.610354 13.793979 0.000000 0.000000 0.000000 -7.125000 0.000000 0.000000 -2.679257 15.004529 -1.896357 0.000000 0.000000 0.000000 1.777013 1.475808 4.015984 -14.007378 -22.745245 -2.830973 -12.457417 9.665843 56.265219 0.000000 0.000000 0.000000 7.125000 0.000000 0.000000 79.904190 76.487045 -65.949496
16.539772 16.362118 21.140582 172.936576 -1.646641 -153.341082 0.000000 0.000000 0.000000 -26.150381 -17.766508 -19.529670 0.242855 3.171582 8.756692 0.188754 -1.039377 -7.904618 5.373548 -13.792396 -42.412255 0.000000 0.000000 0.000000 13.329299 11.735605 -19.875002 -0.122836 -2.259485 6.223401 -0.950869 6.588265 -17.398657 -0.377299 3.941911 -10.913688 -12.374459 -3.174401 -33.751491 -1.296633 -0.152834 -1.267033 4.978292 -1.308580 15.833404 -0.260485 -2.795610 -6.083703 3.071327 -4.056898 7.050048 0.851562 -1.929439 3.428546 0.000000 0.000000 0.000000 3.895481 -1.648552 -17.988805 9.403473 -15.801110 1.307818 23.480545 3.541602 13.690907 0.000000 0.000000 0.000000 -7.125000 0.000000 0.000000 -2.680055 15.116659 -1.890527 0.000000 0.000000 0.000000 1.786658 1.495757 4.056323 -14.044234 -22.797899 -2.845264 -12.459603 9.622509 56.294446 0.000000 0.000000 0.000000 7.125000 0.000000 0.000000 80.027262 76.489503 -66.073026
16.538611 16.361714 21.141203 172.982134 -1.649061 -153.343242 0.000000 0.000000 0.000000 -26.083506 -17.829932 -19.507471 0.242078 3.166452 8.742423 0.187824 -0.943164 -7.906945 5.297585 -13.709848 -42.090083 0.000000 0.000000 0.000000 13.385446 11.723754 -19.874641 -0.121941 -2.251152 6.200287 -0.945933 6.620170 -17.353661 -0.353232 3.818471 -10.566438 -12.318323 -3.167192 -33.779068 -1.286082 -0.156970 -1.249033 4.959022 -1.307827 15.869591 -0.310604 -2.792643 -6.052212 3.132159 -4.052159 7.014005 0.881119 -1.926816 3.412930 0.000000 0.000000 0.000000 3.909580 -1.653955 -18.124982 9.414102 -15.817896 1.310724 23.544313 3.281245 13.586252 0.000000 0.000000 0.000000 -7.125000 0.000000 0.000000 -2.630253 15.222219 -1.849403 0.000000 0.000000 0.000000 1.800397 1.500981 4.111359 -14.081945 -22.851722 -2.859902 -12.473904 9.667284 56.369490 0.000000 0.000000 0.000000 7.125000 0.000000 0.000000 80.342844 76.498659 -66.393309
16.537685 16.361345 21.142525 173.020813 -1.656638 -153.371073 0.000000 0.000000 0.000000 -26.017885 -17.925945 -19.434653 0.240426 3.155569 8.712169 0.187487 -0.785884 -7.937565 5.113980 -13.510809 -41.312346 0.000000 0.000000 0.000000 13.454201 11.667936 -19.878705 -0.122046 -2.252154 6.202937 -0.943985 6.635966 -17.335952 -0.375378 3.932831 -10.888018 -12.278822 -3.159969 -33.733180 -1.269475 -0.167942 -1.248056 4.954051 -1.307819 15.855181 -0.317527 -2.808917 -6.049614 3.120493 -4.074547 7.053237 0.877295 -1.938443 3.426360 0.000000 0.000000 0.000000 3.914526 -1.609045 -18.288096 9.438324 -15.856229 1.317361 23.718437 2.998490 13.375582 0.000000 0.000000 0.000000 -7.125000 0.000000 0.000000 -2.498442 15.430107 -1.745795 0.000000 0.000000 0.000000 1.784690 1.519774 4.201005 -14.100954 -22.878819 -2.867270 -12.501230 9.731032 56.456890 0.000000 0.000000 0.000000 7.125000 0.000000 0.000000 80.710582 76.512757 -66.770750
16.536615 16.360513 21.145075 173.080097 -1.652335 -153.405366 0.000000 0.000000 0.000000 -25.945303 -17.957509 -19.390954 0.239713 3.150885 8.699217 0.188203 -0.722678 -7.968834 5.067360 -13.459065 -41.112431 0.000000 0.000000 0.000000 13.541868 11.626284 -19.892641 -0.123308 -2.263536 6.234473 -0.943223 6.664344 -17.329929 -0.418968 4.154135 -11.510720 -12.217862 -3.137076 -33.642742 -1.246480 -0.176839 -1.266355 4.947123 -1.302958 15.799144 -0.315014 -2.827143 -6.058233 3.081294 -4.099039 7.117605 0.862437 -1.951585 3.449666 0.000000 0.000000 0.000000 3.902317 -1.531862 -18.352261 9.459836 -15.890219 1.323222 24.007038 2.889990 13.013286 0.000000 0.000000 0.000000 -7.125000 0.000000 0.000000 -2.278742 15.789631 -1.574302 0.000000 0.000000 0.000000 1.735487 1.562523 4.317196 -14.103468 -22.882434 -2.868228 -12.523584 9.721999 56.503636 0.000000 0.000000 0.000000 7.125000 0.000000 0.000000 80.907646 76.522865 -66.976058
16.535872 16.359345 21.147328 173.160427 -1.653062 -153.434775 0.000000 0.000000 0.000000 -25.873193 -17.887886 -19.415742 0.241810 3.164353 8.736612 0.188710 -0.784450 -7.964553 5.166737 -13.569046 -41.537954 0.000000 0.000000 0.000000 13.641822 11.643665 -19.884949 -0.124417 -2.274101 6.263887 -0.943939 6.671510 -17.336384 -0.444147 4.276116 -11.854902 -12.137731 -3.116389 -33.576138 -1.216624 -0.192346 -1.280225 4.934434 -1.300728 15.760339 -0.362877 -2.812652 -6.035075 3.102358 -4.076813 7.116049 0.879214 -1.941362 3.446094 0.000000 0.000000 0.000000 3.877578 -1.495150 -18.283229 9.447995 -15.871546 1.319966 24.302014 2.941628 12.730022 0.000000 0.000000 0.000000 -7.125000 0.000000 0.000000 -2.058778 16.064138 -1.409635 0.000000 0.000000 0.000000 1.687301 1.609624 4.384545 -14.101804 -22.880035 -2.867603 -12.512126 9.647682 56.476814 0.000000 0.000000 0.000000 7.125000 0.000000 0.000000 80.794630 76.517663 -66.858766
16.535607 16.358813 21.147593 173.222481 -1.696145 -153.480871 0.000000 0.000000 0.000000 -25.804580 -17.891609 -19.376559 0.242874 3.171622 8.757001 0.189774 -0.780106 -7.989197 5.264604 -13.675689 -41.953624 0.000000 0.000000 0.000000 13.733749 11.662636 -19.809156 -0.123620 -2.266389 6.242523 -0.946244 6.619474 -17.356507 -0.445565 4.283031 -11.874227 -12.079135 -3.123037 -33.533055 -1.186927 -0.228515 -1.277565 4.923176 -1.310657 15.753956 -0.402236 -2.783221 -5.993322 3.141541 -4.036390 7.093356 0.901553 -1.921682 3.431556 0.000000 0.000000 0.000000 3.873500 -1.482119 -18.275782 9.425745 -15.836264 1.313850 24.510691 2.880106 12.715749 0.000000 0.000000 0.000000 -7.125000 0.000000 0.000000 -1.913751 16.056780 -1.310526 0.000000 0.000000 0.000000 1.670902 1.686127 4.437113 -14.131766 -22.922852 -2.879216 -12.510441 9.621442 56.481778 0.000000 0.000000 0.000000 7.125000 0.000000 0.000000 80.815196 76.517309 -66.878712
